<?xml version="1.0" encoding="utf-8"?>
<!-- Generator: Adobe Illustrator 16.0.0, SVG Export Plug-In . SVG Version: 6.00 Build 0)  -->
<!DOCTYPE svg PUBLIC "-//W3C//DTD SVG 1.1//EN" "http://www.w3.org/Graphics/SVG/1.1/DTD/svg11.dtd">
<svg version="1.1" id="Capa_1" xmlns="http://www.w3.org/2000/svg" xmlns:xlink="http://www.w3.org/1999/xlink" x="0px" y="0px"
	 width="7.656px" height="9.834px" viewBox="3.532 0 7.656 9.834" enable-background="new 3.532 0 7.656 9.834"
	 xml:space="preserve">
<g>
	<path fill="#00548E" d="M10.836,3.593c0-1.911-1.55-3.46-3.461-3.46s-3.46,1.549-3.46,3.46c0,0.723,0.231,1.387,0.61,1.943H4.514
		l3.019,4.226l2.706-4.226h-0.001C10.614,4.981,10.836,4.313,10.836,3.593z M7.375,5.278c-0.999,0-1.808-0.809-1.808-1.808
		c0-0.999,0.81-1.809,1.808-1.809c0.998,0,1.809,0.81,1.809,1.809C9.184,4.469,8.374,5.278,7.375,5.278z"/>
</g>
</svg>
