<svg xmlns="http://www.w3.org/2000/svg" width="19.663" height="16" viewBox="0 0 19.663 16">
  <path id="Icon_ionic-logo-twitter" data-name="Icon ionic-logo-twitter" d="M21.076,6.4a8.156,8.156,0,0,1-2.317.637A4.048,4.048,0,0,0,20.534,4.8a8.016,8.016,0,0,1-2.562.979,4.033,4.033,0,0,0-6.979,2.758,3.949,3.949,0,0,0,.1.921A11.432,11.432,0,0,1,2.78,5.238a4.042,4.042,0,0,0,1.254,5.392,3.94,3.94,0,0,1-1.833-.5v.05a4.038,4.038,0,0,0,3.238,3.958,4.061,4.061,0,0,1-1.062.142,3.806,3.806,0,0,1-.758-.075A4.04,4.04,0,0,0,7.388,17a8.088,8.088,0,0,1-5.012,1.729,8.177,8.177,0,0,1-.962-.058A11.276,11.276,0,0,0,7.588,20.5,11.409,11.409,0,0,0,19.076,9.008c0-.175,0-.35-.012-.521A8.212,8.212,0,0,0,21.076,6.4Z" transform="translate(-1.413 -4.5)"/>
</svg>
