<svg xmlns="http://www.w3.org/2000/svg" width="18" height="18" viewBox="0 0 18 18">
  <path id="Icon_awesome-facebook-square" data-name="Icon awesome-facebook-square" d="M16.071,2.25H1.929A1.929,1.929,0,0,0,0,4.179V18.321A1.929,1.929,0,0,0,1.929,20.25H7.443V14.13H4.912V11.25H7.443v-2.2a3.516,3.516,0,0,1,3.764-3.876,15.335,15.335,0,0,1,2.231.194V7.824H12.181A1.44,1.44,0,0,0,10.557,9.38v1.87H13.32l-.442,2.88H10.557v6.12h5.515A1.929,1.929,0,0,0,18,18.321V4.179A1.929,1.929,0,0,0,16.071,2.25Z" transform="translate(0 -2.25)"/>
</svg>
