<svg xmlns="http://www.w3.org/2000/svg" width="19.004" height="19" viewBox="0 0 19.004 19">
  <path id="Icon_awesome-instagram" data-name="Icon awesome-instagram" d="M9.5,6.866a4.871,4.871,0,1,0,4.871,4.871A4.864,4.864,0,0,0,9.5,6.866Zm0,8.038a3.167,3.167,0,1,1,3.167-3.167A3.173,3.173,0,0,1,9.5,14.9Zm6.207-8.238A1.136,1.136,0,1,1,14.57,5.531,1.134,1.134,0,0,1,15.706,6.667ZM18.932,7.82A5.623,5.623,0,0,0,17.4,3.839,5.66,5.66,0,0,0,13.416,2.3c-1.569-.089-6.27-.089-7.839,0A5.652,5.652,0,0,0,1.6,3.835,5.641,5.641,0,0,0,.062,7.816c-.089,1.569-.089,6.27,0,7.839A5.623,5.623,0,0,0,1.6,19.636a5.667,5.667,0,0,0,3.981,1.535c1.569.089,6.27.089,7.839,0A5.623,5.623,0,0,0,17.4,19.636a5.66,5.66,0,0,0,1.535-3.981c.089-1.569.089-6.266,0-7.835Zm-2.027,9.518A3.206,3.206,0,0,1,15.1,19.144c-1.251.5-4.218.382-5.6.382s-4.354.11-5.6-.382a3.206,3.206,0,0,1-1.806-1.806c-.5-1.251-.382-4.218-.382-5.6s-.11-4.354.382-5.6A3.206,3.206,0,0,1,3.9,4.331c1.251-.5,4.218-.382,5.6-.382s4.354-.11,5.6.382a3.206,3.206,0,0,1,1.806,1.806c.5,1.251.382,4.218.382,5.6S17.4,16.092,16.906,17.338Z" transform="translate(0.005 -2.237)"/>
</svg>
