<svg xmlns="http://www.w3.org/2000/svg" width="14.751" height="9.834" viewBox="0 0 14.751 9.834">
  <path id="Icon_awesome-eye" data-name="Icon awesome-eye" d="M14.662,9.043A8.214,8.214,0,0,0,7.376,4.5,8.215,8.215,0,0,0,.089,9.043a.828.828,0,0,0,0,.748,8.214,8.214,0,0,0,7.287,4.543,8.215,8.215,0,0,0,7.287-4.543A.828.828,0,0,0,14.662,9.043ZM7.376,13.105a3.688,3.688,0,1,1,3.688-3.688A3.688,3.688,0,0,1,7.376,13.105Zm0-6.146a2.441,2.441,0,0,0-.648.1A1.225,1.225,0,0,1,5.014,8.769a2.453,2.453,0,1,0,2.362-1.81Z" transform="translate(0 -4.5)" fill="#00548e"/>
</svg>
