<svg xmlns="http://www.w3.org/2000/svg" width="19.322" height="16.938" viewBox="0 0 19.322 16.938">
  <path id="Icon_map-food" data-name="Icon map-food" d="M20,7.346,18.415,19.762h-5.35L11.488,7.284h6.532L19.31,2.825l.732.221L18.8,7.336l1.2.009Zm-9.268,7.184s.2-1.61-2.574-1.61H3.739c-2.77,0-2.574,1.61-2.574,1.61h9.567ZM1.164,18.152s-.2,1.61,2.574,1.61H8.157c2.774,0,2.574-1.61,2.574-1.61H1.164Zm9.152-.805a.926.926,0,0,0,.821-1.006.925.925,0,0,0-.821-1.007H1.541A.926.926,0,0,0,.72,16.341a.928.928,0,0,0,.821,1.006h8.775Z" transform="translate(-0.72 -2.825)" fill="#00548e"/>
</svg>
