<svg xmlns="http://www.w3.org/2000/svg" width="20.715" height="21" viewBox="0 0 20.715 21">
  <path id="Trazado_1149" data-name="Trazado 1149" d="M78.29,111.689A10.769,10.769,0,0,0,68,119.072h1.525a8.8,8.8,0,0,1,.567-1.221h2.935a12.372,12.372,0,0,0-.32,1.221h1.487a11.473,11.473,0,0,1,.375-1.221H77.4v1.221h1.436v-1.221H81.9a10.712,10.712,0,0,1,.42,1.221H83.8a12.015,12.015,0,0,0-.359-1.221h3.048a8.794,8.794,0,0,1,.567,1.221H88.58A10.765,10.765,0,0,0,78.29,111.689Zm2.166,1.689a9.352,9.352,0,0,1,5.034,3.038H82.828A10.071,10.071,0,0,0,80.456,113.378Zm-4.752.106a9.534,9.534,0,0,0-2.115,2.932h-2.5A9.341,9.341,0,0,1,75.7,113.483Zm3.131.461a8.274,8.274,0,0,1,2.317,2.471H78.835Zm-1.436.01v2.461H75.236A7.6,7.6,0,0,1,77.4,113.954Zm-8.973,6.505a.614.614,0,0,0-.359.1.3.3,0,0,0-.144.247.948.948,0,0,0,.067.3l.763,2.192c.023.066.05.139.08.218a.75.75,0,0,0,.122.208.5.5,0,0,0,.2.141.85.85,0,0,0,.32.051.733.733,0,0,0,.381-.087.523.523,0,0,0,.2-.189,3.436,3.436,0,0,0,.141-.324l.683-1.923.679,1.932c.057.143.1.249.138.317a.508.508,0,0,0,.2.189.754.754,0,0,0,.385.083.742.742,0,0,0,.394-.087.517.517,0,0,0,.2-.2,3.175,3.175,0,0,0,.131-.333l.763-2.192a1.053,1.053,0,0,0,.071-.3.293.293,0,0,0-.147-.247.617.617,0,0,0-.356-.1.564.564,0,0,0-.324.077.439.439,0,0,0-.154.17,1.786,1.786,0,0,0-.087.24l-.538,1.865-.6-1.747a3.268,3.268,0,0,0-.138-.32.551.551,0,0,0-.2-.2.767.767,0,0,0-.407-.09.808.808,0,0,0-.407.087.557.557,0,0,0-.215.2,2.33,2.33,0,0,0-.138.317l-.6,1.747-.542-1.878a1.066,1.066,0,0,0-.163-.343A.474.474,0,0,0,68.426,120.46Zm7.38,0a.614.614,0,0,0-.359.1.3.3,0,0,0-.144.247.972.972,0,0,0,.071.3l.763,2.192c.023.066.05.139.08.218a.741.741,0,0,0,.119.208.5.5,0,0,0,.2.141.85.85,0,0,0,.32.051.745.745,0,0,0,.385-.087.511.511,0,0,0,.2-.189,3.432,3.432,0,0,0,.141-.324l.683-1.923.679,1.932c.057.143.1.249.138.317a.508.508,0,0,0,.2.189.754.754,0,0,0,.385.083.742.742,0,0,0,.394-.087.516.516,0,0,0,.2-.2,3.172,3.172,0,0,0,.131-.333l.763-2.192a1.054,1.054,0,0,0,.071-.3.293.293,0,0,0-.147-.247.617.617,0,0,0-.356-.1.564.564,0,0,0-.324.077.439.439,0,0,0-.154.17,1.793,1.793,0,0,0-.087.24l-.538,1.865-.6-1.747a3.263,3.263,0,0,0-.138-.32.538.538,0,0,0-.2-.2.767.767,0,0,0-.407-.09.821.821,0,0,0-.41.087.556.556,0,0,0-.215.2,2.328,2.328,0,0,0-.138.317l-.6,1.747-.542-1.878a1.066,1.066,0,0,0-.16-.343.482.482,0,0,0-.4-.131Zm7.38,0a.614.614,0,0,0-.359.1.3.3,0,0,0-.144.247.972.972,0,0,0,.071.3l.763,2.192c.023.066.05.139.08.218a.741.741,0,0,0,.119.208.5.5,0,0,0,.2.141.85.85,0,0,0,.32.051.746.746,0,0,0,.385-.087.512.512,0,0,0,.2-.189,3.279,3.279,0,0,0,.144-.324l.679-1.923.679,1.932c.057.143.1.249.138.317a.508.508,0,0,0,.2.189.754.754,0,0,0,.385.083.742.742,0,0,0,.394-.087.516.516,0,0,0,.2-.2,3.17,3.17,0,0,0,.131-.333l.763-2.192a1.054,1.054,0,0,0,.071-.3.289.289,0,0,0-.144-.247.628.628,0,0,0-.359-.1.564.564,0,0,0-.324.077.439.439,0,0,0-.154.17,1.8,1.8,0,0,0-.087.24L87,122.812l-.606-1.747a3.267,3.267,0,0,0-.138-.32.538.538,0,0,0-.2-.2.767.767,0,0,0-.407-.09.821.821,0,0,0-.41.087.557.557,0,0,0-.215.2,2.326,2.326,0,0,0-.138.317l-.6,1.747-.538-1.878a1.066,1.066,0,0,0-.163-.343A.482.482,0,0,0,83.187,120.46Zm-15.244,4.656a10.856,10.856,0,0,0,20.7,0H87.122a8.842,8.842,0,0,1-.519,1.2H83.526a12.213,12.213,0,0,0,.33-1.2H82.392a10.037,10.037,0,0,1-.375,1.2H78.835v-1.2H77.4v1.2H74.493a12.142,12.142,0,0,1-.34-1.2H72.679c.083.4.183.8.3,1.2h-3a8.857,8.857,0,0,1-.522-1.2Zm2.977,2.631h2.573a9.117,9.117,0,0,0,2.118,3.125A9.32,9.32,0,0,1,70.919,127.747Zm4.172,0H77.4v2.682A6.84,6.84,0,0,1,75.092,127.747Zm3.743,0H81.3a7.863,7.863,0,0,1-2.468,2.615Zm4.118,0h2.708a9.338,9.338,0,0,1-5.275,3.272A9.665,9.665,0,0,0,82.953,127.747Z" transform="translate(-67.923 -111.688)"/>
</svg>
