<svg xmlns="http://www.w3.org/2000/svg" width="276.38" height="38.702" viewBox="0 0 276.38 38.702">
  <g id="Grupo_23" data-name="Grupo 23" transform="translate(71 -3950)">
    <g id="Grupo_22" data-name="Grupo 22" transform="translate(-71 3950)">
      <g id="Grupo_20" data-name="Grupo 20" transform="translate(0 9.391)">
        <path id="Trazado_18" data-name="Trazado 18" d="M232.013,474.067c5.113,0,7.111,2.537,6.919,6.3a7.62,7.62,0,0,1-5,6.919v.077c3.959.692,5.343,3.19,5.189,6.381-.307,5.881-4.459,8.15-10.533,8.15H217.867l.192-1.5,1.73-.269c1.345-.192,1.538-.384,1.884-2.96l2.576-18.567c.077-.73.154-1.23.154-1.576,0-.846-.384-1.115-1.268-1.23l-1.615-.231.192-1.5Zm-3,25.871c4,0,6.958-1.615,7.15-6.189.231-3.69-2-5.151-5.382-5.151h-5.151l-1.614,11.34Zm-.154-13.3c4.459,0,7-1.922,7.188-5.958.192-2.96-1.345-4.613-4.92-4.613H227.4l-1.461,10.571Z" transform="translate(-217.867 -473.26)" fill="#000"/>
        <path id="Trazado_19" data-name="Trazado 19" d="M379.63,515.056c2.229,0,3.5,1.269,3.5,3.037a6.615,6.615,0,0,1-1.346,3.767l-1.614.077a16.842,16.842,0,0,0,.154-2c0-1.269-.384-2.191-1.884-2.191-1.73,0-3.306,1.038-4.767,2.537l-1.345,9.495-.654,5.344-2.5.346-.269-.231,2.153-14.646a16.178,16.178,0,0,0,.192-1.884c0-1.038-.423-1.5-1.615-1.5a14.682,14.682,0,0,0-2.153.23l-.308-1.307a13.293,13.293,0,0,1,4.536-1.115c1.422,0,2.114.846,2.153,2.576,0,.231-.038.5-.038.769C374.978,516.979,376.9,515.056,379.63,515.056Z" transform="translate(-339.845 -506.715)" fill="#000"/>
        <path id="Trazado_20" data-name="Trazado 20" d="M495.927,531.335a9.037,9.037,0,0,0-.115,1.307c.039.73.384,1.153,1.384,1.192a9.982,9.982,0,0,0,2.23-.307l.307,1.268a9.147,9.147,0,0,1-3.806,1.153c-1.691,0-2.614-.846-2.614-2.729a8.63,8.63,0,0,1-6.074,2.729c-4.459,0-6.035-4.075-6.035-7.419,0-8.688,4.036-13.3,9.072-13.3a6.958,6.958,0,0,1,5.074,2.46l.653-2.037.5-.231,1.961.653-.923,4.305Zm-.884-11.878a7.279,7.279,0,0,0-4.69-2.076c-3.921,0-6.3,4.036-6.3,10.917,0,3.652,1.461,5.5,3.921,5.5a8.391,8.391,0,0,0,5.228-2.345Z" transform="translate(-433.001 -506.887)" fill="#000"/>
        <path id="Trazado_21" data-name="Trazado 21" d="M623.944,532.931a12.245,12.245,0,0,1,.231-2.037l1.5-8.8a15.126,15.126,0,0,0,.154-1.73c0-2.037-.884-2.96-3-2.96s-4.075,1-6.074,2.383l-1.538,10.61-.538,4.767-2.537.308-.269-.192,2.345-15.876a4.745,4.745,0,0,0,.077-.769c0-1.038-.538-1.422-1.73-1.422a12.667,12.667,0,0,0-2.114.269l-.307-1.345a13.325,13.325,0,0,1,4.459-1.115c1.384,0,2.345.577,2.345,2.422a3.954,3.954,0,0,1-.038.654c2.537-2.037,4.267-3.037,6.8-3.037,2.614,0,4.69,1.345,4.69,5.19a13.579,13.579,0,0,1-.154,2.076l-1.461,8.611a8.518,8.518,0,0,0-.154,1.422c0,.884.346,1.307,1.576,1.307a10.453,10.453,0,0,0,2.037-.307l.307,1.268a8.762,8.762,0,0,1-3.883,1.153C624.905,535.776,623.944,534.853,623.944,532.931Z" transform="translate(-538.34 -506.715)" fill="#000"/>
        <path id="Trazado_22" data-name="Trazado 22" d="M761.04,498.718c-4.344,0-6-3.921-6-7.458,0-9.149,4.5-13.262,8.918-13.262a6.969,6.969,0,0,1,5.228,2.46l.846-5.612a13.5,13.5,0,0,0,.154-1.576c0-.769-.538-1.038-1.5-1.23l-1.576-.346.269-1.384,5.458-.654.5.346-3.5,23.487c-.115.923-.192,1.576-.192,1.845,0,.73.346,1.268,1.422,1.268a9.375,9.375,0,0,0,2.191-.307l.308,1.268a8.994,8.994,0,0,1-3.767,1.153c-1.73,0-2.652-.846-2.652-2.729A8.67,8.67,0,0,1,761.04,498.718Zm7.842-16.491a7.277,7.277,0,0,0-4.69-2.076c-4.075,0-6.3,4.228-6.3,10.84,0,3.806,1.5,5.574,4,5.574a8.409,8.409,0,0,0,5.151-2.345Z" transform="translate(-656.716 -469.657)" fill="#000"/>
        <path id="Trazado_23" data-name="Trazado 23" d="M923.136,485.626c-.9-1.494-3.361-2.912-6.2-2.912-3.659,0-5.414,1.531-5.414,3.473,0,2.278,2.688,2.913,5.825,3.286,5.452.672,10.53,2.091,10.53,8.327,0,5.825-5.153,8.327-10.978,8.327-5.34,0-9.447-1.643-11.389-6.422l4.107-2.128c1.158,2.875,4.182,4.145,7.356,4.145,3.1,0,6.012-1.083,6.012-3.921,0-2.464-2.576-3.472-6.049-3.846-5.34-.635-10.269-2.054-10.269-7.916,0-5.377,5.3-7.58,10.119-7.617,4.07,0,8.29,1.158,10.269,5.19Z" transform="translate(-779.641 -476.815)" fill="#000"/>
        <path id="Trazado_24" data-name="Trazado 24" d="M1068.742,497.187v5.228h5.078v3.921H1068.7v7.954c0,1.755.971,2.614,2.39,2.614a5.2,5.2,0,0,0,2.2-.56l1.27,3.883a10.177,10.177,0,0,1-3.771.784c-4,.15-6.609-2.128-6.609-6.721v-7.954h-3.435v-3.921h3.435v-4.742Z" transform="translate(-906.465 -492.148)" fill="#000"/>
        <path id="Trazado_25" data-name="Trazado 25" d="M1176.28,525.542v9.634c0,2.8,1.531,4.929,4.444,4.929,2.8,0,4.7-2.352,4.7-5.153v-9.41h4.518v18.446h-4.07l-.3-2.5a8.2,8.2,0,0,1-6.236,2.763c-4.406,0-7.617-3.323-7.617-9.036v-9.671Z" transform="translate(-997.125 -515.313)" fill="#000"/>
        <path id="Trazado_26" data-name="Trazado 26" d="M1328.993,483.519v26.1h-4.257l-.3-2.539a6.7,6.7,0,0,1-5.937,2.95c-5.415,0-9.484-3.585-9.484-9.634,0-6.348,4-9.634,9.372-9.634,1.942,0,4.966,1.046,6.049,2.95V483.519ZM1313.572,500.4a5.285,5.285,0,1,0,10.567,0,5.253,5.253,0,0,0-5.34-5.377A5.078,5.078,0,0,0,1313.572,500.4Z" transform="translate(-1109.286 -480.982)" fill="#000"/>
        <path id="Trazado_27" data-name="Trazado 27" d="M1463.313,485.313c0,3.547-5.377,3.547-5.377,0S1463.313,481.766,1463.313,485.313Zm-4.966,5.116v18.484h4.556V490.429Z" transform="translate(-1230.947 -480.274)" fill="#000"/>
        <path id="Trazado_28" data-name="Trazado 28" d="M1544.611,533.1c0,5.3-3.622,9.6-9.6,9.6s-9.559-4.294-9.559-9.6a9.578,9.578,0,1,1,19.156,0Zm-14.6,0c0,2.8,1.68,5.414,5,5.414s5-2.614,5-5.414a5.2,5.2,0,0,0-5-5.452C1531.728,527.647,1530.011,530.335,1530.011,533.1Z" transform="translate(-1286.107 -513.646)" fill="#000"/>
      </g>
      <g id="Grupo_21" data-name="Grupo 21" transform="translate(259.576 0)">
        <path id="Trazado_29" data-name="Trazado 29" d="M1645.806,426.427c-2.892.975.017-.006-2.906.984,0,.012,0,.019,0,.032a2.455,2.455,0,1,1-.166-.871c1.643-.447,5.75-1.665,8.24-4.993a8.391,8.391,0,0,0-4.536-2.961,8.55,8.55,0,0,0-2.1-.266,8.239,8.239,0,0,0-3.758.88,8.409,8.409,0,0,0-2.311,1.692,7.825,7.825,0,0,0-1.916,3.122c-1.647,5.036,2.349,6.758,4.1,6.758a5.532,5.532,0,0,0,3.438-1.218,5.388,5.388,0,0,0,1.915-3.16Zm6.944-.172a14.943,14.943,0,0,0-4.26-.26c-1.054,5.563-7.254,8.846-5.2,9.144a7.911,7.911,0,0,0,1.028.08,8.449,8.449,0,0,0,8.444-8.419,4.931,4.931,0,0,0-.007-.545Z" transform="translate(-1635.961 -418.352)" fill="#000"/>
      </g>
    </g>
  </g>
</svg>
